HIERARCHY
ROOT Hips
{
	OFFSET 0.000000 0.000000 0.000000 
	CHANNELS 6 Xposition Yposition Zposition Zrotation Yrotation Xrotation
	JOINT LeftUpLeg
	{
		OFFSET 1.363060 -1.794630 0.839290 
		CHANNELS 3 Zrotation Yrotation Xrotation
		JOINT LeftLeg
		{
			OFFSET 2.448110 -6.726130 0.000000 
			CHANNELS 3 Zrotation Yrotation Xrotation
			JOINT LeftFoot
			{
				OFFSET 2.562200 -7.039590 0.000000 
				CHANNELS 3 Zrotation Yrotation Xrotation
				JOINT LeftToeBase
				{
					OFFSET 0.157640 -0.433110 2.322550 
					CHANNELS 3 Zrotation Yrotation Xrotation
					End Site
					{
						OFFSET 0.000000 0.000000 0.000000 
					}
				}
			}
		}
	}
	JOINT RightUpLeg
	{
		OFFSET -1.305520 -1.794630 0.839290 
		CHANNELS 3 Zrotation Yrotation Xrotation
		JOINT RightLeg
		{
			OFFSET -2.542530 -6.985550 0.000000 
			CHANNELS 3 Zrotation Yrotation Xrotation
			JOINT RightFoot
			{
				OFFSET -2.568260 -7.056230 0.000000 
				CHANNELS 3 Zrotation Yrotation Xrotation
				JOINT RightToeBase
				{
					OFFSET -0.164730 -0.452590 2.363150 
					CHANNELS 3 Zrotation Yrotation Xrotation
					End Site
					{
						OFFSET 0.000000 0.000000 0.000000 
					}
				}
			}
		}
	}
	JOINT Spine
	{
		OFFSET 0.028270 2.035590 -0.193380 
		CHANNELS 3 Zrotation Yrotation Xrotation
		JOINT Spine1
		{
			OFFSET 0.056720 2.048850 -0.042750 
			CHANNELS 3 Zrotation Yrotation Xrotation
			JOINT Neck1
			{
				OFFSET -0.054170 1.746240 0.172020 
				CHANNELS 3 Zrotation Yrotation Xrotation
				JOINT Head
				{
					OFFSET 0.104070 1.761360 -0.123970 
					CHANNELS 3 Zrotation Yrotation Xrotation
					End Site
					{
						OFFSET 0.000000 0.000000 0.000000 
					}
				}
			}
			JOINT LeftArm
			{
				OFFSET 3.362410 1.200890 -0.311210 
				CHANNELS 3 Zrotation Yrotation Xrotation
				JOINT LeftForeArm
				{
					OFFSET 4.983000 -0.000000 -0.000000 
					CHANNELS 3 Zrotation Yrotation Xrotation
					JOINT LeftHand
					{
						OFFSET 3.483560 -0.000000 -0.000000 
						CHANNELS 3 Zrotation Yrotation Xrotation
						JOINT LeftHandIndex1
						{
							OFFSET 0.715260 -0.000000 -0.000000 
							CHANNELS 3 Zrotation Yrotation Xrotation
							End Site
							{
								OFFSET 0.000000 0.000000 0.000000 
							}
						}
					}
				}
			}
			JOINT RightArm
			{
				OFFSET -3.136600 1.374050 -0.404650 
				CHANNELS 3 Zrotation Yrotation Xrotation
				JOINT RightForeArm
				{
					OFFSET -5.241900 -0.000000 -0.000000 
					CHANNELS 3 Zrotation Yrotation Xrotation
					JOINT RightHand
					{
						OFFSET -3.444170 -0.000000 -0.000000 
						CHANNELS 3 Zrotation Yrotation Xrotation
						JOINT RightHandIndex1
						{
							OFFSET -0.622530 -0.000000 -0.000000 
							CHANNELS 3 Zrotation Yrotation Xrotation
							End Site
							{
								OFFSET 0.000000 0.000000 0.000000 
							}
						}
					}
				}
			}
		}
	}
}
MOTION
Frames: 16
Frame Time: 0.041667
8.150004 17.863637 34.618754 178.628399 -1.488443 -155.949030 -26.196817 -18.680304 -19.446447 -0.981303 6.350920 14.504982 0.669029 -2.899091 -18.500226 5.427800 -13.850000 -42.639800 31.784418 16.230536 -16.609661 1.200831 -4.501190 10.494228 -1.204540 -0.711752 -21.891518 -2.644200 10.095500 -29.286600 1.676275 -0.744187 -5.244027 -0.005565 -1.372748 14.343476 9.341397 -3.505481 13.948291 0.926400 -1.093700 2.881500 -106.568572 -2.038140 0.965790 8.351626 -8.128730 -0.693957 -0.778395 1.677341 24.581213 -7.125000 0.000000 0.000000 98.744192 -2.289401 2.547496 -11.990206 21.905873 -3.115000 1.402863 3.973707 5.062247 7.125000 0.000000 0.000000 
8.142444 17.867034 34.612181 178.615229 -1.631347 -156.143978 -26.260458 -18.941468 -19.094566 -0.985498 6.303443 14.429440 0.684360 -2.853354 -18.574312 5.035800 -13.424000 -40.977300 31.808567 16.038211 -16.289860 1.205855 -4.420061 10.383625 -1.207087 -0.880113 -21.889564 -2.674500 10.148500 -29.459000 1.653084 -0.740103 -5.207349 -0.101199 -1.351985 14.389715 9.514931 -3.516193 13.803051 1.008400 -1.107300 2.775100 -106.501151 -1.965818 1.651054 8.400922 -8.182256 -0.703577 -0.821909 1.657792 23.808068 -7.125000 0.000000 0.000000 98.738173 -2.328298 2.573105 -11.973649 21.886549 -3.107272 1.382030 3.943193 4.792199 7.125000 0.000000 0.000000 
8.141896 17.865609 34.610428 178.553441 -1.666306 -156.247221 -26.380599 -18.886854 -18.987115 -0.980410 6.290898 14.420815 0.671870 -2.928664 -18.522219 5.035000 -13.423100 -40.973600 31.795555 15.947216 -16.140308 1.207138 -4.384756 10.345557 -1.211247 -0.954896 -21.911284 -2.792000 10.350500 -30.119300 1.641041 -0.765632 -5.205169 -0.109420 -1.388370 14.393912 9.149981 -3.736178 14.654733 0.825800 -1.168800 3.251300 -106.461804 -1.844833 2.085190 8.423069 -8.196163 -0.708260 -0.854596 1.651860 23.365569 -7.125000 0.000000 0.000000 98.747842 -2.335696 2.370708 -11.919462 21.811391 -3.075071 1.345047 3.916855 4.924401 7.125000 0.000000 0.000000 
8.144745 17.863747 34.607798 178.626832 -1.740278 -156.351557 -26.306156 -18.778275 -18.888532 -0.974393 6.274520 14.414810 0.656302 -3.048854 -18.484884 5.036300 -13.424500 -40.979100 31.942081 16.038458 -15.920473 1.215347 -4.343930 10.277825 -1.218408 -1.061237 -21.975490 -2.795000 10.355600 -30.136000 1.629187 -0.719269 -5.196675 -0.103570 -1.371209 14.373828 9.027697 -3.924864 14.801984 0.726100 -1.253300 3.317100 -106.405974 -1.806877 2.207688 8.433119 -8.214121 -0.712120 -0.860231 1.665826 23.285185 -7.125000 0.000000 0.000000 98.874282 -2.443818 2.136389 -11.900266 21.812394 -3.080331 1.414448 4.001954 5.085448 7.125000 0.000000 0.000000 
8.145402 17.862432 34.605717 178.728175 -1.826660 -156.392418 -26.164691 -18.782964 -18.841892 -0.973634 6.267462 14.409684 0.653768 -3.080466 -18.489895 4.991400 -13.374100 -40.785600 32.103864 16.210762 -15.746089 1.230582 -4.312016 10.208468 -1.219388 -1.317693 -22.041412 -2.793200 10.352500 -30.125800 1.628470 -0.683215 -5.174681 -0.112710 -1.363603 14.444047 8.704243 -4.022559 15.121834 0.565700 -1.288600 3.468200 -106.412769 -1.823639 2.527624 8.477411 -8.271974 -0.722273 -0.884635 1.665726 22.946397 -7.125000 0.000000 0.000000 98.932253 -2.442800 2.052465 -11.882534 21.801726 -3.077268 1.437482 4.033643 5.055512 7.125000 0.000000 0.000000 
8.142006 17.862651 34.605169 178.759630 -1.883102 -156.404840 -26.134600 -18.825273 -18.815086 -0.975251 6.268018 14.411565 0.660338 -3.035330 -18.502510 5.057700 -13.448500 -41.071500 32.146387 16.405466 -15.651150 1.242066 -4.309042 10.200986 -1.220476 -1.577644 -22.122608 -2.782100 10.333700 -30.064300 1.649416 -0.718795 -5.169823 -0.074207 -1.396913 14.486625 8.329491 -4.023098 15.713812 0.425900 -1.265300 3.805300 -106.508771 -1.766159 3.105462 8.563041 -8.380425 -0.741012 -0.919305 1.635453 22.203452 -7.125000 0.000000 0.000000 98.866983 -2.382440 1.943165 -11.830510 21.729936 -3.054020 1.454936 4.031160 5.062929 7.125000 0.000000 0.000000 
8.136747 17.862651 34.602978 178.756747 -2.020507 -156.379165 -26.133661 -18.946781 -18.820527 -0.974121 6.276085 14.424759 0.658718 -3.034037 -18.491410 5.131100 -13.529900 -41.386000 32.104522 16.417032 -15.719840 1.242139 -4.349951 10.288970 -1.224463 -1.671412 -22.197709 -2.763500 10.302000 -29.960200 1.657792 -0.733104 -5.177786 0.000642 -1.370718 14.430726 9.447523 -3.756528 14.921488 1.018400 -1.165200 3.385100 -106.562009 -1.740217 3.637864 8.630816 -8.472996 -0.754289 -0.955863 1.591116 21.482570 -7.125000 0.000000 0.000000 98.829851 -2.407977 1.708091 -11.750504 21.600610 -3.023849 1.490770 4.038587 5.189547 7.125000 0.000000 0.000000 
8.133789 17.863747 34.598595 178.738144 -2.119251 -156.462646 -26.187742 -18.931672 -18.740179 -0.969560 6.266919 14.417995 0.645424 -3.107616 -18.433390 5.240700 -13.649800 -41.852500 32.124096 16.032389 -15.730440 1.227040 -4.364340 10.374942 -1.231466 -1.494097 -22.179369 -2.810600 10.382000 -30.222800 1.658301 -0.778172 -5.170103 -0.032674 -1.393042 14.448998 9.321151 -3.892963 15.144652 0.961200 -1.223000 3.516400 -106.567035 -1.756057 3.883040 8.666439 -8.517058 -0.761748 -0.969633 1.570235 21.087386 -7.125000 0.000000 0.000000 98.858425 -2.331428 1.552007 -11.674385 21.499924 -2.995343 1.514008 4.067277 5.256460 7.125000 0.000000 0.000000 
8.131817 17.859145 34.595528 178.745221 -2.120144 -156.398369 -26.169509 -18.887650 -18.850274 -0.966353 6.285942 14.448178 0.635101 -3.171336 -18.417083 5.198200 -13.603600 -41.672200 32.110611 15.904668 -15.864217 1.218195 -4.385296 10.413915 -1.233737 -1.297280 -22.155494 -2.764200 10.303100 -29.964000 1.655495 -0.782698 -5.177060 -0.071927 -1.412214 14.491304 8.967272 -4.032768 15.623506 0.789800 -1.270800 3.791300 -106.578968 -1.783269 4.010486 8.676585 -8.525148 -0.765528 -0.975240 1.594512 20.902917 -7.125000 0.000000 0.000000 98.914614 -2.328513 1.500940 -11.662903 21.499059 -2.992956 1.525223 4.085219 5.224941 7.125000 0.000000 0.000000 
8.129626 17.858050 34.593008 178.770769 -2.186104 -156.340704 -26.122377 -18.866081 -18.937404 -0.960521 6.298674 14.472451 0.615884 -3.327217 -18.416802 4.978100 -13.359100 -40.728200 32.116014 15.968169 -15.907016 1.221404 -4.391044 10.406261 -1.235620 -1.313149 -22.191127 -2.719400 10.226300 -29.712600 1.650140 -0.744720 -5.184159 -0.038811 -1.379418 14.457696 9.381229 -3.926591 15.056836 0.985200 -1.245400 3.443600 -106.580363 -1.808671 4.379497 8.705692 -8.567649 -0.774904 -0.990388 1.621745 20.506531 -7.125000 0.000000 0.000000 98.975936 -2.356344 1.232695 -11.607141 21.412197 -2.973197 1.557719 4.103919 5.367015 7.125000 0.000000 0.000000 
8.126339 17.859912 34.590707 178.745138 -2.278847 -156.354424 -26.154223 -18.888817 -18.872366 -0.961919 6.261176 14.382723 0.597047 -3.443430 -18.361586 4.863000 -13.227800 -40.227300 32.105540 15.869858 -15.888393 1.222222 -4.383915 10.404806 -1.237285 -1.372070 -22.211439 -2.778100 10.326800 -30.041600 1.667048 -0.786330 -5.187824 0.027408 -1.405124 14.467238 9.289097 -4.084128 15.074945 0.935900 -1.324900 3.467400 -106.655529 -1.833736 4.626800 8.757170 -8.647747 -0.790879 -0.985261 1.647966 20.084256 -7.125000 0.000000 0.000000 98.932721 -2.271215 0.903352 -11.484589 21.230718 -2.922338 1.584913 4.135164 5.597960 7.125000 0.000000 0.000000 
8.123162 17.858817 34.590817 178.743405 -2.338134 -156.299991 -26.132200 -18.965634 -18.901208 -0.965478 6.254488 14.348497 0.594661 -3.417711 -18.316527 4.913600 -13.285900 -40.448200 32.079010 15.825046 -15.989611 1.219586 -4.405789 10.443908 -1.238791 -1.335033 -22.226313 -2.742800 10.266600 -29.844500 1.685977 -0.837047 -5.195546 0.074048 -1.438943 14.500169 9.282092 -4.137504 15.285238 0.943100 -1.338800 3.624800 -106.706932 -1.878512 4.961871 8.809715 -8.718062 -0.803773 -0.999964 1.636872 19.503683 -7.125000 0.000000 0.000000 98.887954 -2.222335 0.800009 -11.418685 21.136844 -2.894899 1.593975 4.153860 5.640580 7.125000 0.000000 0.000000 
8.119327 17.860679 34.587201 178.811202 -2.368403 -156.381856 -26.093176 -18.965369 -18.801199 -0.965905 6.247292 14.351276 0.603805 -3.363948 -18.330186 4.983300 -13.365000 -40.750600 32.166400 15.739636 -15.880526 1.215609 -4.390316 10.440668 -1.245349 -1.246374 -22.236428 -2.670800 10.142000 -29.437700 1.679236 -0.831513 -5.176846 0.030786 -1.438903 14.561163 9.230328 -4.202677 15.482260 0.895300 -1.355900 3.764200 -106.644208 -1.929621 5.631450 8.865809 -8.776007 -0.813185 -1.057716 1.576733 18.626766 -7.125000 0.000000 0.000000 98.959802 -2.127208 0.481759 -11.310082 20.961373 -2.833047 1.552862 4.103342 6.018424 7.125000 0.000000 0.000000 
8.117026 17.855968 34.587968 178.835362 -2.435263 -156.206955 -26.000216 -18.949387 -19.106558 -0.958403 6.309926 14.457431 0.585271 -3.467919 -18.305092 5.066800 -13.458700 -41.110600 32.148014 15.788208 -16.094035 1.222745 -4.413028 10.434505 -1.238870 -1.332289 -22.244000 -2.747000 10.273700 -29.867700 1.683819 -0.844283 -5.189705 0.056927 -1.452501 14.610323 9.306037 -4.228172 15.462707 0.916800 -1.366500 3.757000 -106.654205 -2.046207 6.033656 8.894891 -8.795242 -0.815458 -1.113052 1.539508 18.046452 -7.125000 0.000000 0.000000 98.951097 -1.945688 -0.445224 -11.009643 20.449648 -2.667479 1.494747 3.909317 7.136704 7.125000 0.000000 0.000000 
8.114507 17.855311 34.587859 178.829873 -2.496402 -156.167135 -25.998249 -18.916669 -19.221651 -0.951187 6.346785 14.535925 0.575233 -3.528687 -18.288942 5.132200 -13.531100 -41.390600 32.130441 15.783578 -16.115543 1.228311 -4.394410 10.377718 -1.234661 -1.404074 -22.231611 -2.817400 10.393500 -30.260500 1.690621 -0.846737 -5.186033 0.084155 -1.459081 14.655838 9.352416 -4.305693 15.405180 0.926900 -1.407300 3.721400 -106.718235 -2.235274 6.016224 8.899102 -8.790903 -0.813786 -1.134267 1.534713 18.033855 -7.125000 0.000000 0.000000 99.007083 -1.813608 -0.186808 -11.027017 20.518706 -2.711481 1.692286 4.041550 6.649444 7.125000 0.000000 0.000000 
8.111658 17.855968 34.584681 178.800060 -2.500495 -156.145762 -26.068565 -18.905308 -19.217803 -0.951870 6.343484 14.525727 0.575514 -3.531371 -18.295795 5.166100 -13.568400 -41.535300 32.078111 15.690821 -16.136460 1.222399 -4.382404 10.354175 -1.232590 -1.258969 -22.169392 -2.759300 10.294900 -29.937000 1.637002 -0.729139 -5.175419 0.016086 -1.412226 14.688796 9.233115 -4.522717 15.338621 0.809000 -1.517300 3.653400 -106.614315 -2.345606 6.513688 8.936206 -8.831799 -0.821545 -1.164943 1.509758 17.713343 -7.125000 0.000000 0.000000 99.147453 -1.737943 -1.169041 -10.796231 20.123346 -2.576067 1.532195 3.944409 7.833349 7.125000 0.000000 0.000000 
